<?xml version="1.0" standalone="no"?>
<!DOCTYPE svg PUBLIC "-//W3C//DTD SVG 20010904//EN"
 "http://www.w3.org/TR/2001/REC-SVG-20010904/DTD/svg10.dtd">
<svg version="1.0" xmlns="http://www.w3.org/2000/svg"
 width="512.000000pt" height="512.000000pt" viewBox="0 0 512.000000 512.000000"
 preserveAspectRatio="xMidYMid meet">
<metadata>
Created by potrace 1.11, written by Peter Selinger 2001-2013
</metadata>
<g transform="translate(0.000000,512.000000) scale(0.100000,-0.100000)"
fill="#000000" stroke="none">
<path d="M2345 5114 c-16 -2 -84 -11 -150 -20 -776 -105 -1490 -599 -1878
-1300 -146 -262 -246 -559 -293 -869 -26 -170 -26 -560 0 -730 85 -557 326
-1036 719 -1434 534 -540 1267 -814 2009 -752 348 29 623 105 933 256 415 202
766 514 1025 911 82 126 203 366 255 508 117 317 171 703 147 1038 -26 363
-101 643 -257 963 -248 508 -663 923 -1170 1170 -366 178 -679 253 -1095 260
-118 2 -228 2 -245 -1z m570 -1453 c45 -20 91 -69 112 -118 28 -69 47 1 -397
-1507 -149 -504 -159 -531 -234 -569 -49 -26 -123 -33 -171 -17 -80 27 -144
113 -145 196 0 25 53 222 129 480 71 242 177 599 234 794 58 195 123 417 145
493 22 76 52 156 67 178 51 78 172 110 260 70z m-1276 -270 c71 -37 121 -115
121 -191 0 -80 -12 -95 -287 -371 l-264 -266 255 -254 c271 -270 296 -302 296
-389 0 -25 -9 -63 -19 -85 -19 -43 -78 -100 -118 -116 -42 -16 -131 -11 -171
10 -20 11 -195 178 -388 373 -320 321 -352 357 -364 400 -14 53 -8 104 20 158
26 50 696 715 740 734 50 22 133 20 179 -3z m2019 4 c45 -19 714 -682 742
-735 28 -54 34 -105 20 -158 -12 -43 -44 -79 -364 -400 -198 -199 -368 -362
-390 -373 -45 -24 -128 -27 -177 -6 -73 31 -129 116 -129 197 0 86 25 118 295
390 l255 255 -256 255 c-163 163 -263 269 -275 295 -47 101 -1 222 106 278 39
21 125 21 173 2z"/>
</g>
</svg>
